<?xml version="1.0" encoding="utf-8"?>
<!-- Generator: Adobe Illustrator 24.1.1, SVG Export Plug-In . SVG Version: 6.00 Build 0)  -->
<svg version="1.1" id="Isolation_Mode" xmlns="http://www.w3.org/2000/svg" xmlns:xlink="http://www.w3.org/1999/xlink" x="0px"
	 y="0px" viewBox="0 0 99 34.5" xml:space="preserve">

<g>
	<path class="st0" d="M80.67,5.03l11.25,12.22L80.67,29.47c-1.12,1.22-1.04,3.12,0.17,4.24c1.22,1.12,3.12,1.04,4.24-0.17
		L98.2,19.28c1.06-1.15,1.06-2.91,0-4.06L85.08,0.97c-1.12-1.22-3.02-1.3-4.24-0.17C79.62,1.92,79.54,3.81,80.67,5.03L80.67,5.03z" fill="#fff"/>
	<path class="st0" d="M2.99,20.2l89.09,0.07c1.66,0,3-1.34,3.01-2.99c0-1.66-1.34-3-2.99-3.01L3.01,14.2c-1.66,0-3,1.34-3.01,2.99
		C0,18.85,1.34,20.2,2.99,20.2" fill="#fff"/>
</g>
</svg>
