<?xml version="1.0" encoding="utf-8"?>
<!-- Generator: Adobe Illustrator 16.0.0, SVG Export Plug-In . SVG Version: 6.00 Build 0)  -->
<!DOCTYPE svg PUBLIC "-//W3C//DTD SVG 1.1//EN" "http://www.w3.org/Graphics/SVG/1.1/DTD/svg11.dtd">
<svg version="1.1" id="Layer_1" xmlns="http://www.w3.org/2000/svg" xmlns:xlink="http://www.w3.org/1999/xlink" x="0px" y="0px"
	 width="58px" height="64px" viewBox="0 0 58 64" enable-background="new 0 0 58 64" xml:space="preserve">
<g>
	<defs>
		<rect id="SVGID_1_" width="58" height="64"/>
	</defs>
	<clipPath id="SVGID_2_">
		<use xlink:href="#SVGID_1_"  overflow="visible"/>
	</clipPath>
	<path clip-path="url(#SVGID_2_)" fill="#363F40" d="M58,64h-2V53c0-5.239-6.226-8.021-12.316-10.052C39.266,41.477,34,39.249,34,37
		v-5h2v5c0.294,0.746,4.185,2.674,8.316,4.052C51.083,43.307,58,46.49,58,53V64z"/>
	<path clip-path="url(#SVGID_2_)" fill="#363F40" d="M2,64H0V53c0-6.51,6.917-9.693,13.684-11.948
		c4.131-1.378,8.022-3.306,8.326-4.124L22,32h2v5c0,2.249-5.266,4.477-9.684,5.948C8.226,44.979,2,47.761,2,53V64z"/>
	<rect x="11" y="43" clip-path="url(#SVGID_2_)" fill="#363F40" width="2" height="21"/>
	<rect x="45" y="43" clip-path="url(#SVGID_2_)" fill="#363F40" width="2" height="21"/>
	<path clip-path="url(#SVGID_2_)" fill="#363F40" d="M29,35c-7.793,0-10.832-7.541-10.993-12.579l-0.714-0.714
		C17.105,21.52,17,21.266,17,21v-2h2v1.586l0.707,0.707C19.895,21.48,20,21.734,20,22c0,4.253,2.443,11,9,11c6.557,0,9-6.747,9-11
		c0-0.266,0.105-0.52,0.293-0.707L39,20.586V19h2v2c0,0.266-0.105,0.52-0.293,0.707l-0.714,0.714C39.832,27.459,36.793,35,29,35"/>
	<path clip-path="url(#SVGID_2_)" fill="#363F40" d="M29,45c-0.292,0-0.569-0.128-0.759-0.35l-6-7l1.518-1.301L29,42.464
		l5.241-6.114l1.518,1.301l-6,7C29.569,44.872,29.292,45,29,45"/>
	<path clip-path="url(#SVGID_2_)" fill="#363F40" d="M29,19c-7.271,0-15-2.103-15-6h2c0,1.631,5.064,4,13,4c7.936,0,13-2.369,13-4h2
		C44,16.897,36.271,19,29,19"/>
	<path clip-path="url(#SVGID_2_)" fill="#363F40" d="M42,13h-2c0-6.065-4.935-11-11-11c-6.065,0-11,4.935-11,11h-2
		c0-7.168,5.832-13,13-13S42,5.832,42,13"/>
	<path clip-path="url(#SVGID_2_)" fill="#363F40" d="M32,5h-2c0-2.206,1.794-4,4-4v2C32.897,3,32,3.897,32,5"/>
	<rect x="30" y="5" clip-path="url(#SVGID_2_)" fill="#363F40" width="2" height="8"/>
	<path clip-path="url(#SVGID_2_)" fill="#363F40" d="M28,5h-2c0-1.103-0.897-2-2-2V1C26.206,1,28,2.794,28,5"/>
	<rect x="26" y="5" clip-path="url(#SVGID_2_)" fill="#363F40" width="2" height="8"/>
	<rect x="17" y="40" clip-path="url(#SVGID_2_)" fill="#363F40" width="2" height="24"/>
	<rect x="39" y="40" clip-path="url(#SVGID_2_)" fill="#363F40" width="2" height="24"/>
	<rect x="21" y="48" clip-path="url(#SVGID_2_)" fill="#363F40" width="16" height="2"/>
	<rect x="21" y="54" clip-path="url(#SVGID_2_)" fill="#363F40" width="16" height="2"/>
	<rect x="21" y="60" clip-path="url(#SVGID_2_)" fill="#363F40" width="16" height="2"/>
</g>
</svg>
