<?xml version="1.0" encoding="utf-8"?>
<!-- Generator: Adobe Illustrator 16.0.0, SVG Export Plug-In . SVG Version: 6.00 Build 0)  -->
<!DOCTYPE svg PUBLIC "-//W3C//DTD SVG 1.1//EN" "http://www.w3.org/Graphics/SVG/1.1/DTD/svg11.dtd">
<svg version="1.1" id="Layer_1" xmlns="http://www.w3.org/2000/svg" xmlns:xlink="http://www.w3.org/1999/xlink" x="0px" y="0px"
	 width="57.565px" height="52.559px" viewBox="0 0 57.565 52.559" enable-background="new 0 0 57.565 52.559" xml:space="preserve">
<g>
	<defs>
		<rect id="SVGID_1_" y="0" width="57.565" height="52.559"/>
	</defs>
	<clipPath id="SVGID_2_">
		<use xlink:href="#SVGID_1_"  overflow="visible"/>
	</clipPath>
	<path clip-path="url(#SVGID_2_)" fill="#39434E" d="M56.667,15.318L29.557,0.221c-0.529-0.295-1.177-0.295-1.706,0.002
		L0.896,15.309C0.342,15.618,0,16.202,0,16.836v35.723h3.5V17.862L28.707,3.755l25.357,14.12v34.684h3.5V16.847
		C57.564,16.212,57.222,15.627,56.667,15.318"/>
	<path clip-path="url(#SVGID_2_)" fill="#39434E" d="M47.362,27.056H10.203c-0.967,0-1.75,0.784-1.75,1.75v23.753h3.5v-8.588h33.659
		v8.588h3.5V28.806C49.112,27.84,48.329,27.056,47.362,27.056 M45.612,33.922h-33.66v-3.366h33.66V33.922z M11.953,37.422h33.66
		v3.049h-33.66V37.422z"/>
	<rect x="12.635" y="19.509" clip-path="url(#SVGID_2_)" fill="#39434E" width="7.238" height="3.5"/>
	<rect x="25.163" y="19.509" clip-path="url(#SVGID_2_)" fill="#39434E" width="7.238" height="3.5"/>
	<rect x="37.691" y="19.509" clip-path="url(#SVGID_2_)" fill="#39434E" width="7.237" height="3.5"/>
</g>
</svg>
