<?xml version="1.0" encoding="utf-8"?>
<!-- Generator: Adobe Illustrator 16.0.0, SVG Export Plug-In . SVG Version: 6.00 Build 0)  -->
<!DOCTYPE svg PUBLIC "-//W3C//DTD SVG 1.1//EN" "http://www.w3.org/Graphics/SVG/1.1/DTD/svg11.dtd">
<svg version="1.1" id="Layer_1" xmlns="http://www.w3.org/2000/svg" xmlns:xlink="http://www.w3.org/1999/xlink" x="0px" y="0px"
	 width="428.329px" height="487.2px" viewBox="0 0 428.329 487.2" enable-background="new 0 0 428.329 487.2" xml:space="preserve">
<g>
	<defs>
		<rect id="SVGID_1_" width="428.329" height="487.2"/>
	</defs>
	<clipPath id="SVGID_2_">
		<use xlink:href="#SVGID_1_"  overflow="visible"/>
	</clipPath>
	<path clip-path="url(#SVGID_2_)" fill-rule="evenodd" clip-rule="evenodd" fill="#2F2F2F" d="M49.49,0.001h329.348
		c13.587,0,26.002,5.583,34.954,14.536c8.953,8.953,14.536,21.367,14.536,34.955v388.237c0,13.605-5.583,25.983-14.536,34.936
		c-8.952,8.953-21.367,14.537-34.954,14.537H49.49c-13.587,0-26.002-5.584-34.954-14.537C5.584,463.712,0,451.334,0,437.729V49.492
		C0,35.904,5.584,23.49,14.536,14.537C23.488,5.584,35.903,0.001,49.49,0.001 M70.485,125.84l10.274,5.49
		c8.432-15.746,19.599-29.836,32.833-41.617c11.186,8.785,23.544,16.137,36.815,21.777l-4.337,15.709l11.335,2.754l3.909-14.276
		c16.602,5.677,34.415,8.785,52.858,8.785c18.445,0,36.259-3.108,52.86-8.785l3.909,14.276l11.334-2.754l-4.336-15.709
		c13.271-5.64,25.629-12.992,36.814-21.777c13.233,11.781,24.401,25.871,32.833,41.617l10.273-5.49
		c-13.959-26.077-34.823-47.909-60.099-63.041c-24.438-14.629-53.064-23.06-83.59-23.06c-30.523,0-59.149,8.431-83.587,23.06
		C105.309,77.931,84.444,99.763,70.485,125.84 M136.578,72.831c-4.746,2.848-9.324,5.938-13.717,9.269
		c9.622,7.315,20.12,13.476,31.325,18.315c5.323-14.238,11.744-26.467,18.985-36.071c2.549-3.425,5.229-6.514,7.984-9.269
		C165.187,58.63,150.165,64.698,136.578,72.831 M291.77,72.831c-13.587-8.133-28.608-14.201-44.577-17.756
		c2.754,2.755,5.435,5.844,7.985,9.269c7.239,9.604,13.66,21.833,18.983,36.071c11.205-4.839,21.702-11,31.325-18.315
		C301.095,78.769,296.516,75.679,291.77,72.831 M357.861,279.616l-10.273-5.491c-8.432,15.728-19.6,29.818-32.833,41.617
		c-11.167-8.785-23.544-16.118-36.814-21.776l4.336-15.709l-11.334-2.755l-3.909,14.277c-16.639-5.696-34.433-8.805-52.86-8.805
		c-18.426,0-36.238,3.108-52.858,8.805l-3.909-14.277l-11.335,2.755l4.337,15.709c-13.271,5.658-25.648,12.991-36.815,21.776
		c-13.234-11.799-24.401-25.89-32.833-41.617l-10.274,5.491c13.959,26.076,34.824,47.908,60.1,63.041
		c24.438,14.628,53.064,23.06,83.587,23.06c30.525,0,59.151-8.432,83.59-23.06C323.038,327.524,343.902,305.692,357.861,279.616
		 M291.77,332.624c4.746-2.847,9.325-5.938,13.717-9.288c-9.623-7.277-20.12-13.438-31.325-18.296
		c-5.323,14.239-11.744,26.467-18.983,36.072c-2.551,3.424-5.231,6.514-7.985,9.268C263.161,346.826,278.183,340.758,291.77,332.624
		 M136.578,332.624c13.587,8.134,28.608,14.202,44.577,17.756c-2.755-2.754-5.435-5.844-7.984-9.268
		c-7.241-9.605-13.662-21.833-18.985-36.072c-11.205,4.858-21.721,11.019-31.325,18.296
		C127.254,326.687,131.833,329.777,136.578,332.624 M214.173,292.701c-17.215,0-33.744,2.884-49.099,8.133
		c4.932,13.215,10.832,24.494,17.44,33.28c9.455,12.6,20.343,19.878,31.659,19.878c11.317,0,22.205-7.278,31.66-19.878
		c6.608-8.786,12.508-20.065,17.441-33.28C247.918,295.585,231.391,292.701,214.173,292.701 M214.173,112.737
		c17.235,0,33.782-2.886,49.102-8.116c-4.934-13.214-10.833-24.512-17.441-33.279c-9.455-12.6-20.343-19.878-31.66-19.878
		c-11.315,0-22.204,7.278-31.659,19.878c-6.608,8.767-12.508,20.065-17.44,33.279C180.392,109.851,196.938,112.737,214.173,112.737
		 M93.806,139.985H55.855v125.299h37.951V139.985z M169.169,267.536c33.632,0,54.106-15.969,54.106-43.59
		c0-46.587-69.704-36.443-69.704-48.281c0-3.182,2.066-5.621,9.586-5.621c11.837,0,25.927,4.133,36.834,12.396l20.287-26.858
		c-14.275-11.67-32.683-17.477-53.175-17.477c-34.378,0-52.041,20.288-52.041,41.525c0,49.397,69.89,37.187,69.89,49.211
		c0,4.877-6.775,6.775-13.904,6.775c-16.9,0-31.008-7.147-40.389-16.174L110.93,247.64
		C124.275,259.663,142.497,267.536,169.169,267.536 M303.904,267.536c38.696,0,68.569-26.28,68.569-64.808
		c0-38.528-29.873-64.809-68.569-64.809c-38.695,0-68.568,26.281-68.568,64.809C235.336,241.256,265.209,267.536,303.904,267.536
		 M303.904,234.09c18.222,0,30.059-13.885,30.059-31.362s-11.837-31.362-30.059-31.362c-18.221,0-30.059,13.885-30.059,31.362
		S285.684,234.09,303.904,234.09 M63.282,441.005c13.55,0,21.926-10.274,21.926-26.263c0-14.406-5.938-26.206-20.027-26.206
		c-10.2,0-17.664,7.241-17.664,17.664c0,10.813,6.924,16.676,14.686,16.676c4.504,0,8.617-2.438,10.59-5.938v0.688
		c0,7.092-3.964,12.49-9.66,12.49c-3.275,0-5.565-1.137-7.705-3.425l-5.696,9.213C52.915,439.032,57.94,441.005,63.282,441.005
		 M66.241,412.378c2.755,0,4.951-1.6,6.552-3.889c-0.298-4.337-1.824-9.065-6.85-9.065c-3.889,0-5.937,3.277-5.937,6.328
		C60.006,410.629,63.282,412.378,66.241,412.378 M108.119,441.079c13.03,0,18.967-12.787,18.967-26.262
		c0-13.477-5.937-26.206-18.967-26.206c-13.028,0-19.04,12.729-19.04,26.206C89.079,428.292,95.091,441.079,108.119,441.079
		 M108.119,430.19c4.877,0,6.478-5.714,6.478-15.373c0-9.754-1.601-15.318-6.478-15.318c-4.95,0-6.551,5.564-6.551,15.318
		C101.568,424.477,103.169,430.19,108.119,430.19 M149.923,441.079c13.029,0,18.966-12.787,18.966-26.262
		c0-13.477-5.937-26.206-18.966-26.206c-13.028,0-19.041,12.729-19.041,26.206C130.882,428.292,136.896,441.079,149.923,441.079
		 M149.923,430.19c4.876,0,6.477-5.714,6.477-15.373c0-9.754-1.601-15.318-6.477-15.318c-4.951,0-6.551,5.564-6.551,15.318
		C143.372,424.477,144.972,430.19,149.923,430.19 M198.13,440.167v-50.794h-10.666l-16.304,16.23l7.017,7.296l7.613-7.761v35.028
		H198.13z M212.2,416.492c3.649,0,6.776-3.126,6.776-6.85c0-3.667-3.127-6.794-6.776-6.794c-3.722,0-6.849,3.127-6.849,6.794
		C205.351,413.366,208.479,416.492,212.2,416.492 M212.2,441.005c3.649,0,6.776-3.053,6.776-6.775c0-3.648-3.127-6.775-6.776-6.775
		c-3.722,0-6.849,3.127-6.849,6.775C205.351,437.952,208.479,441.005,212.2,441.005 M260.185,440.167v-10.739h-16.901
		c12.024-11.335,16.509-17.365,16.509-24.662c0-9.753-7.463-16.154-18.183-16.154c-7.241,0-13.718,2.902-18.278,8.449l7.147,7.854
		c2.978-3.499,6.477-5.416,10.888-5.416c3.499,0,6.012,2.215,6.012,5.416c0,4.876-2.959,7.836-22.445,25.35v9.902H260.185z
		 M283.636,441.079c13.028,0,18.967-12.787,18.967-26.262c0-13.477-5.938-26.206-18.967-26.206s-19.04,12.729-19.04,26.206
		C264.596,428.292,270.607,441.079,283.636,441.079 M283.636,430.19c4.877,0,6.477-5.714,6.477-15.373
		c0-9.754-1.6-15.318-6.477-15.318c-4.95,0-6.552,5.564-6.552,15.318C277.084,424.477,278.686,430.19,283.636,430.19
		 M331.842,440.167v-50.794h-10.664l-16.306,16.23l7.018,7.296l7.611-7.761v35.028H331.842z M356.335,441.079
		c11.819,0,19.115-7.147,19.115-17.738c0-10.515-6.383-16.601-14.238-16.601c-3.871,0-7.296,1.674-9.213,4.038v-10.664h20.418
		v-10.741h-32.738v29.706l8.821,2.122c2.215-2.662,4.652-3.872,7.93-3.872c4.262,0,6.458,2.513,6.458,6.384
		c0,3.519-2.363,6.478-6.925,6.478c-4.038,0-7.761-1.75-10.516-4.949l-7.221,8.077C342.339,438.343,348.352,441.079,356.335,441.079
		 M378.838,15.784H49.49c-9.287,0-17.737,3.797-23.823,9.883c-6.087,6.087-9.884,14.536-9.884,23.825v388.237
		c0,9.27,3.797,17.72,9.884,23.806c6.086,6.086,14.536,9.883,23.823,9.883h329.348c9.288,0,17.738-3.797,23.824-9.883
		s9.883-14.536,9.883-23.806V49.492c0-9.289-3.797-17.738-9.883-23.825C396.576,19.581,388.126,15.784,378.838,15.784"/>
</g>
</svg>
