<?xml version="1.0" encoding="utf-8"?>
<!-- Generator: Adobe Illustrator 16.0.0, SVG Export Plug-In . SVG Version: 6.00 Build 0)  -->
<!DOCTYPE svg PUBLIC "-//W3C//DTD SVG 1.1//EN" "http://www.w3.org/Graphics/SVG/1.1/DTD/svg11.dtd">
<svg version="1.1" id="Layer_1" xmlns="http://www.w3.org/2000/svg" xmlns:xlink="http://www.w3.org/1999/xlink" x="0px" y="0px"
	 width="56px" height="71px" viewBox="0 0 56 71" enable-background="new 0 0 56 71" xml:space="preserve">
<g>
	<defs>
		<rect id="SVGID_1_" width="56" height="71"/>
	</defs>
	<clipPath id="SVGID_2_">
		<use xlink:href="#SVGID_1_"  overflow="visible"/>
	</clipPath>
	<path clip-path="url(#SVGID_2_)" fill="#363F40" d="M56,71h-2V55c0-5.406-2.451-7.097-8.316-9.052l-7.077-3.029l0.787-1.838l7,3
		C52.739,46.192,56,48.473,56,55V71z"/>
	<path clip-path="url(#SVGID_2_)" fill="#363F40" d="M2,71H0V55c0-6.527,3.261-8.808,9.684-10.948l6.922-2.971l0.788,1.838l-7,3
		C4.451,47.903,2,49.594,2,55V71z"/>
	<rect x="10" y="63" clip-path="url(#SVGID_2_)" fill="#363F40" width="2" height="8"/>
	<rect x="44" y="63" clip-path="url(#SVGID_2_)" fill="#363F40" width="2" height="8"/>
	<path clip-path="url(#SVGID_2_)" fill="#363F40" d="M26,71h-2V44.414l-2.707-2.707C21.105,41.52,21,41.265,21,41v-6h2v5.586
		l2.707,2.707C25.895,43.48,26,43.735,26,44V71z"/>
	<path clip-path="url(#SVGID_2_)" fill="#363F40" d="M32,71h-2V44c0-0.265,0.105-0.52,0.293-0.707L33,40.586V35h2v6
		c0,0.265-0.105,0.52-0.293,0.707L32,44.414V71z"/>
	<path clip-path="url(#SVGID_2_)" fill="#363F40" d="M22,71h-2v-9.795l-5.919-13.812c-0.121-0.282-0.105-0.604,0.042-0.874
		c0.147-0.269,0.41-0.455,0.713-0.506l4.083-0.681l-4.626-4.626c-0.212-0.212-0.317-0.508-0.288-0.806
		c0.029-0.298,0.191-0.567,0.44-0.733l3-2c0.096-0.064,0.201-0.11,0.313-0.138l4-1l0.484,1.939l-3.832,0.958l-1.841,1.228
		l5.138,5.138c0.265,0.265,0.359,0.655,0.245,1.013c-0.114,0.356-0.418,0.619-0.788,0.681l-4.743,0.791l5.498,12.829
		C21.973,60.73,22,60.864,22,61V71z"/>
	<path clip-path="url(#SVGID_2_)" fill="#363F40" d="M36,71h-2V61c0-0.136,0.027-0.27,0.081-0.394l5.498-12.829l-4.743-0.791
		c-0.37-0.062-0.674-0.324-0.788-0.681c-0.114-0.357-0.02-0.748,0.245-1.013l5.138-5.138l-1.841-1.228l-3.832-0.958l0.484-1.939l4,1
		c0.111,0.027,0.217,0.073,0.313,0.138l3,2c0.249,0.166,0.411,0.436,0.44,0.733s-0.076,0.594-0.288,0.806l-4.626,4.626l4.083,0.681
		c0.303,0.051,0.566,0.237,0.713,0.506c0.147,0.271,0.163,0.592,0.042,0.874L36,61.205V71z"/>
	<path clip-path="url(#SVGID_2_)" fill="#363F40" d="M39,13c-0.125,0-0.251-0.023-0.371-0.071L33.808,11H24
		c-0.197,0-0.39-0.059-0.554-0.168L21.388,9.46l-0.493,0.987C20.725,10.786,20.379,11,20,11h-3c-0.552,0-1-0.448-1-1V5.414
		l-1.707-1.707C14.105,3.52,14,3.265,14,3V1c0-0.552,0.448-1,1-1h20c2.757,0,5,2.243,5,5v7c0,0.332-0.164,0.642-0.439,0.828
		C39.393,12.942,39.197,13,39,13 M24.303,9H34c0.128,0,0.254,0.024,0.372,0.071L38,10.523V5c0-1.654-1.346-3-3-3H16v0.586
		l1.707,1.707C17.895,4.48,18,4.735,18,5v4h1.382l0.724-1.447c0.128-0.257,0.361-0.446,0.637-0.519
		c0.277-0.075,0.572-0.026,0.812,0.134L24.303,9z"/>
	<path clip-path="url(#SVGID_2_)" fill="#363F40" d="M33.001,29c-0.367,0-0.72-0.202-0.896-0.553L30.382,25h-4.764l-1.723,3.447
		c-0.248,0.494-0.847,0.696-1.342,0.448C22.285,28.761,16,25.531,16,18h2c0,4.793,3.053,7.513,4.592,8.58l1.513-3.027
		C24.275,23.214,24.621,23,25,23h6c0.379,0,0.725,0.214,0.895,0.553l1.514,3.027C34.945,25.515,38,22.794,38,18h2
		c0,7.531-6.285,10.761-6.553,10.895C33.304,28.966,33.151,29,33.001,29"/>
	<path clip-path="url(#SVGID_2_)" fill="#363F40" d="M28,37c-7.794,0-12-5.667-12-11V12h2v14c0,4.363,3.505,9,10,9s10-4.637,10-9V14
		h2v12C40,31.333,35.794,37,28,37"/>
	<path clip-path="url(#SVGID_2_)" fill="#363F40" d="M23,21c-2.206,0-4-1.794-4-4s1.794-4,4-4s4,1.794,4,4S25.206,21,23,21 M23,15
		c-1.103,0-2,0.897-2,2s0.897,2,2,2s2-0.897,2-2S24.103,15,23,15"/>
	<path clip-path="url(#SVGID_2_)" fill="#363F40" d="M33,21c-2.206,0-4-1.794-4-4s1.794-4,4-4s4,1.794,4,4S35.206,21,33,21 M33,15
		c-1.103,0-2,0.897-2,2s0.897,2,2,2s2-0.897,2-2S34.103,15,33,15"/>
	<rect x="17" y="16" clip-path="url(#SVGID_2_)" fill="#363F40" width="3" height="2"/>
	<rect x="36" y="16" clip-path="url(#SVGID_2_)" fill="#363F40" width="3" height="2"/>
	<rect x="26" y="16" clip-path="url(#SVGID_2_)" fill="#363F40" width="4" height="2"/>
</g>
</svg>
