<?xml version="1.0" encoding="utf-8"?>
<!-- Generator: Adobe Illustrator 24.1.1, SVG Export Plug-In . SVG Version: 6.00 Build 0)  -->
<svg version="1.1" id="Artwork" xmlns="http://www.w3.org/2000/svg" xmlns:xlink="http://www.w3.org/1999/xlink" x="0px" y="0px"
	 viewBox="0 0 253.57 67.97" xml:space="preserve">
<g>
	<g>
		<polygon points="166.75,0 166.75,29.26 138.52,29.26 138.52,0.03 129.11,0.03 129.11,29.26 129.11,38.67 129.11,67.97 
			138.52,67.97 138.52,38.67 166.75,38.67 166.75,67.94 176.16,67.94 176.16,38.67 176.16,29.26 176.16,0 		"/>
		<g>
			<path d="M64.87,46.91c-2.34-3.76-3.7-8.2-3.7-12.95c0-13.54,11.02-24.56,24.56-24.56c4.75,0,9.18,1.36,12.95,3.7l6.79-6.79
				C99.9,2.35,93.09,0,85.73,0C66.97,0,51.76,15.21,51.76,33.97c0,7.36,2.35,14.17,6.33,19.73L64.87,46.91z"/>
			<path d="M112.29,12.81l-6.72,6.72c2.96,4.06,4.71,9.05,4.71,14.44c0,13.54-11.02,24.56-24.56,24.56c-5.4,0-10.39-1.75-14.44-4.71
				l-6.72,6.72c5.81,4.63,13.16,7.41,21.16,7.41c18.76,0,33.97-15.21,33.97-33.97C119.7,25.96,116.92,18.61,112.29,12.81z"/>
		</g>
		<g>
			<path d="M243.31,38.69c-2.2,11.3-12.17,19.85-24.1,19.85s-21.9-8.55-24.1-19.85h-9.54c2.29,16.53,16.47,29.26,33.64,29.26
				s31.34-12.73,33.64-29.26H243.31z"/>
			<path d="M195.11,29.28c2.2-11.3,12.17-19.85,24.1-19.85s21.9,8.55,24.1,19.85h9.54c-2.29-16.53-16.47-29.26-33.64-29.26
				s-31.34,12.73-33.64,29.26H195.11z"/>
		</g>
		<path d="M30.63,33.04c5.46-2.82,6.85-9.5,6.85-16.07C37.48,7.6,29.88,0,20.51,0H9v0.04H0v67.89h9v0.01h15.17
			c10.04,0,18.18-8.14,18.18-18.18C42.35,41.13,38.69,34.9,30.63,33.04z M28.15,18.82c0,5.2-4.21,10.4-9.41,10.4H9.41V9.41h9.33
			C23.94,9.41,28.15,13.62,28.15,18.82z M22.34,58.52H9.41V38.63h12.92c5.76,0,10.44,3.68,10.44,9.45S28.1,58.52,22.34,58.52z"/>
	</g>
</g>
</svg>
