<?xml version="1.0" encoding="utf-8"?>
<!-- Generator: Adobe Illustrator 16.0.0, SVG Export Plug-In . SVG Version: 6.00 Build 0)  -->
<!DOCTYPE svg PUBLIC "-//W3C//DTD SVG 1.1//EN" "http://www.w3.org/Graphics/SVG/1.1/DTD/svg11.dtd">
<svg version="1.1" id="Layer_1" xmlns="http://www.w3.org/2000/svg" xmlns:xlink="http://www.w3.org/1999/xlink" x="0px" y="0px"
	 width="99px" height="34.498px" viewBox="0 0 99 34.498" enable-background="new 0 0 99 34.498" xml:space="preserve">
<g>
	<defs>
		<rect id="SVGID_1_" width="99" height="34.498"/>
	</defs>
	<clipPath id="SVGID_2_">
		<use xlink:href="#SVGID_1_"  overflow="visible"/>
	</clipPath>
	<path clip-path="url(#SVGID_2_)" fill="#4C4847" d="M80.667,5.032l11.252,12.217L80.667,29.466
		c-1.123,1.219-1.045,3.116,0.174,4.238c1.22,1.123,3.117,1.045,4.239-0.173l13.124-14.25c1.062-1.151,1.062-2.913,0-4.065
		L85.08,0.968c-1.122-1.219-3.02-1.297-4.239-0.175C79.622,1.916,79.544,3.814,80.667,5.032z"/>
	<path clip-path="url(#SVGID_2_)" fill="#4C4847" d="M2.995,20.2l89.087,0.067c1.657,0.003,3.003-1.339,3.006-2.995
		c0.003-1.657-1.339-3.003-2.994-3.006L3.005,14.2C1.349,14.197,0.002,15.538,0,17.195C-0.003,18.852,1.337,20.197,2.995,20.2"/>
</g>
</svg>
