<?xml version="1.0" encoding="utf-8"?>
<!-- Generator: Adobe Illustrator 16.0.0, SVG Export Plug-In . SVG Version: 6.00 Build 0)  -->
<!DOCTYPE svg PUBLIC "-//W3C//DTD SVG 1.1//EN" "http://www.w3.org/Graphics/SVG/1.1/DTD/svg11.dtd">
<svg version="1.1" id="Layer_1" xmlns="http://www.w3.org/2000/svg" xmlns:xlink="http://www.w3.org/1999/xlink" x="0px" y="0px"
	 width="41.378px" height="67.581px" viewBox="0 0 41.378 67.581" enable-background="new 0 0 41.378 67.581" xml:space="preserve">
<g>
	<defs>
		<rect id="SVGID_1_" y="0" width="41.378" height="67.581"/>
	</defs>
	<clipPath id="SVGID_2_">
		<use xlink:href="#SVGID_1_"  overflow="visible"/>
	</clipPath>
	
		<path clip-path="url(#SVGID_2_)" fill="none" stroke="#484751" stroke-width="2.632" stroke-linecap="square" stroke-miterlimit="10" d="
		M13.432,23.392c-0.393-2.276,0.02-2.7,0.02-2.7l5.392-3.529c1.406-0.851,1.975-2.605,1.333-4.12l-4.162-9.836
		c-0.606-1.433-2.183-2.193-3.682-1.777l-4.01,1.113C7.979,2.639,7.64,2.776,7.337,2.967c-9.441,5.928-6.411,22.586-0.244,37.174
		c5.999,14.189,16.023,28.745,26.904,25.722c0.307-0.086,0.603-0.221,0.878-0.382l3.652-2.135c1.344-0.785,1.896-2.446,1.289-3.881
		l-4.161-9.834c-0.642-1.514-2.295-2.329-3.886-1.914l-6.288,1.41c0,0-2.248-0.091-7.886-13.427
		c-2.013-4.762-3.119-8.034-3.709-10.273C13.674,24.623,13.529,23.952,13.432,23.392"/>
</g>
</svg>
