<?xml version="1.0" encoding="utf-8"?>
<!-- Generator: Adobe Illustrator 16.0.0, SVG Export Plug-In . SVG Version: 6.00 Build 0)  -->
<!DOCTYPE svg PUBLIC "-//W3C//DTD SVG 1.1//EN" "http://www.w3.org/Graphics/SVG/1.1/DTD/svg11.dtd">
<svg version="1.1" id="Layer_1" xmlns="http://www.w3.org/2000/svg" xmlns:xlink="http://www.w3.org/1999/xlink" x="0px" y="0px"
	 width="42px" height="42px" viewBox="0 0 42 42" enable-background="new 0 0 42 42" xml:space="preserve">
<g>
	<defs>
		<rect id="SVGID_1_" width="42" height="42"/>
	</defs>
	<clipPath id="SVGID_2_">
		<use xlink:href="#SVGID_1_"  overflow="visible"/>
	</clipPath>
	<path clip-path="url(#SVGID_2_)" fill="#505050" d="M21,42C9.421,42,0,32.579,0,21S9.421,0,21,0s21,9.421,21,21S32.579,42,21,42
		 M21,2C10.523,2,2,10.523,2,21c0,10.477,8.523,19,19,19c10.477,0,19-8.523,19-19C40,10.523,31.477,2,21,2"/>
	<polygon clip-path="url(#SVGID_2_)" fill="#505050" points="28.986,23.887 21,15.901 13.013,23.887 12.063,22.937 21,14 
		29.937,22.937 	"/>
	<polygon clip-path="url(#SVGID_2_)" fill="none" stroke="#000000" stroke-miterlimit="10" points="28.986,23.887 21,15.901 
		13.013,23.887 12.063,22.937 21,14 29.937,22.937 	"/>
</g>
</svg>
